<svg xmlns="http://www.w3.org/2000/svg" viewBox="0 0 76.63 11.91"><g id="Layer_2" data-name="Layer 2"><g id="Layer_1-2" data-name="Layer 1"><path d="M75.39,1.19c2.4,1,.58,2.9.58,2.9L75.54,6.5c-2.06.72-3.92,2.18-6.3,1.78-1.59.93-3.35.65-5,.53-1-.08-1.73.95-2.68.62-.76-.26-1.31.93-2.2.07-.62-.59-1.33.47-2.06.52a13.39,13.39,0,0,0-2.62.06,23.15,23.15,0,0,1-7.08.53c-.91,0-1.88.34-2.74-.49-.55-.54-.89.58-1.46.5-2.06-.31-4.21.64-6.22-.54-.43-.26-1.15,0-1.73,0-2.25,0-4.49,0-6.74,0-.55,0-1.13.22-1.66-.21s-1.24-.39-2,0c-1.05.58-2.27,1.49-3.57.24-.21-.2-.76,0-1.13-.08-.92-.24-1.71.63-2.77.08-.88-.45-1.8.78-3,.56s-2.45-.41-3.11.11c-.94.75-2,.2-2.93.85-1.17.78-4.53-.2-6.07-1.21-.16-.1-.29-.37-.43-.36-.95.08-1.88-.15-2-1.17C0,7.62-.25,6.32,1,5.17A13.22,13.22,0,0,1,8.72,1.84a2.26,2.26,0,0,0,1.35-.33,1.87,1.87,0,0,1,2.13-.06,1.71,1.71,0,0,0,2,0A2.86,2.86,0,0,1,17,1.5a2.87,2.87,0,0,0,2.95,0c.48-.29.92-.15,1.35-.29,1.16-.37,2.09,1.18,3.2.43s2.43-.3,3.64-.39,2.34,0,3.51,0,2.35.05,3.51,0c.82-.05,1.5.59,2.49.09s1.79.81,2.94.55a8.42,8.42,0,0,1,2.92,0c1.65.24,3.08-.74,4.73-.73,1,0,1.89.79,3.08.23a6.41,6.41,0,0,1,3.46-.08c1.49.24,2.67-.87,4.16-.66A9.25,9.25,0,0,0,63,.59c2.57-.87,5.13-.36,7.69-.5s2.59-.2,3.93.61Z"/></g></g></svg>
