<svg xmlns="http://www.w3.org/2000/svg" viewBox="0 0 98.78 11.26"><g id="Layer_2" data-name="Layer 2"><g id="Layer_1-2" data-name="Layer 1"><path d="M56.61,10.62a1.72,1.72,0,0,0-1.63.29c-.69.61-1.4.38-2-.32s-.93-.91-1.65-.18c-.25.26-.9.2-1.36.17-2.26-.2-4.52.27-6.81-.48-1.5-.5-3.28-.1-4.94-.1s-3.12,0-4.68,0a12.42,12.42,0,0,0-3,.35A5.94,5.94,0,0,0,26.35,10c-1.49.42-2.15-.74-4.41-.62-1.27.61-1.1-.47-3.87-.16-.73.09-1.33.49-1.78-.18-.76-1.14-1.56-.57-2.38-.18-.63.29-1.21,1.1-1.9.06-.07-.1-.36,0-.55-.07-.91-.15-1.61,1.28-2.6.4s-2-.26-3.07-.38-1.95,0-2.93,0C1,8.81-.09,8,0,6.21A6.66,6.66,0,0,1,1.56,1.59,4.85,4.85,0,0,1,5.34,0a32.62,32.62,0,0,1,9.32,1.62c.38.11.82.29,1.08.16,1-.5,1.84-1,2.75,0,.86-.3,1.83,0,2.63-.36a4.72,4.72,0,0,1,4.29.62A5.5,5.5,0,0,0,29,1.91c1.27.09,2.44.48,2.84.45,2-.15,4,.64,5.93-.52,1.77,1.47,4.09-.25,6,1.06.67.46,1.92,0,2.88.1s1.95-.49,2.76.42a.61.61,0,0,0,.52.13c3.28-1.29,6.68-.37,10-.51,1.42-.06,2.65.94,3.86.28a4.36,4.36,0,0,1,3.43-.2,8.94,8.94,0,0,0,3.27.31c1.17-.82,3.07-.29,4-.48,2.71-.56,5.59.64,8.31-.44,1.81,1.28,4-.2,6,.92a3.48,3.48,0,0,0,3.3-.22,2,2,0,0,1,2.15,0,2.62,2.62,0,0,0,2.4.15c1-.27,2.45,1,2.1,1.91a2.1,2.1,0,0,0,0,1.83c.31.72-.39,1.35-1.27,1.13s-1.49.82-2.5.1c-.55-.38-1.56-.25-2.36-.61-1-.46-1.51.62-2.09,1.21-.78.78-.82.3-.87-.4,0-.1-.41-.29-.43-.26-.85,1-2.33.08-3.11,1-.59.68-1.28.67-2,.86-.41.11-.66.58-1.06,0a2.07,2.07,0,0,0-2.61-.61c-1.59.72-4.53.27-6.12.36a5.77,5.77,0,0,0-3.64.33,3.41,3.41,0,0,0-3.12.1c-1,.57-1.08.73-4.2.13-.81-.15-1.15-.56-2.34.07Z"/></g></g></svg>
