<svg xmlns="http://www.w3.org/2000/svg" viewBox="0 0 128.37 11.47"><g id="Layer_2" data-name="Layer 2"><g id="Layer_1-2" data-name="Layer 1"><path d="M2.07,5.52C1.11,6.24.36,7,.5,8.29a.55.55,0,0,1-.17.41c-.79.53.08,1,.2,1,1.08.18,1.88,1.31,3,.93.93-.32,2.12.62,3.26.36,1.52-.38,2.33.75,3.59.37s2.46.2,3.16-.06c1.38-.53,2-.09,3.18-.56.39-.33,1.66-1.19,2-.75.83,1,1.64.34,2.33.11.87-.28,1.78-.34,2.64-.63.48,1.13,1.2.28,1.78.16a4.38,4.38,0,0,1,1.56-.31,10.29,10.29,0,0,0,4,0c1-.25,2.12.1,3.26-.08s2.24-.41,3.35-.6a4.25,4.25,0,0,1,3,.18,4.74,4.74,0,0,0,1.92.26c.7.07,1.42.3,2-.26a1.1,1.1,0,0,0,1.54.17c.63-.47,1.33-.29,2-.28s1.42.52,2.06-.14c2.49,0,4.93-.85,7.46-.28.79.18,1.73.61,2.52-.17,1,.44,1.82-.33,2.76-.2a18.07,18.07,0,0,0,4.36.43c1.36-.15,2.74-.13,4.1-.37a3.94,3.94,0,0,1,3,.61,2.83,2.83,0,0,0,2.74.15c.33-.17.63-.27.83,0,.4.59,1,.39,1.53.52,2.68.64,5.43-.12,8.11.42a.85.85,0,0,0,.47,0c1.42-.74,3,0,4.42-.46,2.92.68,5.91.12,8.84.52a5.65,5.65,0,0,0,3-.18c1.26-.51,2.5-.08,3.74-.09.74,0,1,.63,1.68.77s1.32-.58,2-.33c.37.12.83,0,1.06.42s.68-.56,1.07.15a1.28,1.28,0,0,0,1.54.27,2.12,2.12,0,0,1,2.07-.14c.79.23,1.33-.5,2.05-.31,2.29.6,4.39-.59,6.6-.73a1.07,1.07,0,0,0,1-.82,7.33,7.33,0,0,1,.79-2.68,1.2,1.2,0,0,0-.27-1.52c1.16-1,.31-1.34-.56-1.8a6,6,0,0,0-4-.66c-.41.12-.9.28-1.12.08-1.09-.93-2.44-.58-3.66-.87-1.44-.35-3.06.11-4.37-1a.93.93,0,0,0-.9,0,1.77,1.77,0,0,1-2.05,0c-.81-.54-1.34-.11-2,0s-1.2.68-2,.58-1.29-.41-1.81.24c-.5-1-1.16-.23-1.77-.2-.44,0-1,.14-1.35-.32s-.77-.4-1.2,0a1.66,1.66,0,0,1-.79.48,6,6,0,0,1-1.69-.18c-.67-.18-1.11.46-1.81.34-1.6-.29-3.24-.34-4.85-.6s-3.12.39-4.72,0A4,4,0,0,0,84.6,1,2.64,2.64,0,0,1,81.91.41c-.14-.13-.54-.22-.62-.13a2.05,2.05,0,0,1-3.14.08.78.78,0,0,0-.7-.08c-.82.74-1.74.34-2.54.16-2.22-.51-4.46.28-6.66-.22-.63.87-1.22-.58-2,0S64.71.33,64,.2s-1.64.59-2.54.25C61,.3,60.73-.35,60.08.24,59.76.53,59-.1,58.49.32a.94.94,0,0,1-.89.17C55.32,0,53,.84,50.7.22,50.47.15,50.13,0,50,.15A2.68,2.68,0,0,1,47.46.3c-1-.26-1.87.42-2.77.2-2.29-.56-4.47.94-6.74.29a12,12,0,0,1-4.09.53,20.62,20.62,0,0,1-4.23,0,3,3,0,0,0-1.38.09,32,32,0,0,1-7.84,1.32c-1.27.88-2.71.06-4.11.41a13.2,13.2,0,0,1-4.07.22C11.13,3,10.18,3.7,9.11,4c-.88.21-2.1-.11-2.64.48C5.48,5.54,3.71,4.82,2.07,5.52Z"/></g></g></svg>
