<svg xmlns="http://www.w3.org/2000/svg" viewBox="0 0 55.83 55.84"><defs><style>.cls-1{fill:#fff;}</style></defs><g id="Layer_2" data-name="Layer 2"><g id="Layer_1-2" data-name="Layer 1"><path class="cls-1" d="M55.69,16.42a20.34,20.34,0,0,0-1.3-6.78,13.7,13.7,0,0,0-3.23-4.95,13.64,13.64,0,0,0-4.94-3.22A20.91,20.91,0,0,0,39.45.17C36.46,0,35.51,0,27.93,0S19.4,0,16.42.16a20.34,20.34,0,0,0-6.78,1.3A13.7,13.7,0,0,0,4.69,4.69,13.81,13.81,0,0,0,1.47,9.63a20.92,20.92,0,0,0-1.3,6.78C0,19.4,0,20.34,0,27.93s0,8.53.16,11.51a20.33,20.33,0,0,0,1.3,6.77,13.67,13.67,0,0,0,3.23,4.95,13.81,13.81,0,0,0,4.94,3.22,20.4,20.4,0,0,0,6.78,1.3c3,.13,3.92.16,11.51.16s8.53,0,11.51-.16a20.33,20.33,0,0,0,6.77-1.3,14.29,14.29,0,0,0,8.17-8.17,20.39,20.39,0,0,0,1.3-6.77c.13-3,.16-3.93.16-11.51S55.82,19.4,55.69,16.42Zm-5,22.8a15.37,15.37,0,0,1-1,5.18,9.28,9.28,0,0,1-5.3,5.3,15.43,15.43,0,0,1-5.18,1c-1.19.05-2,.09-3.13.11V33.18h6.13l1-6.15H36.09V22.76a2.92,2.92,0,0,1,3-3h4.07V13.62H39.06a9.14,9.14,0,0,0-9.13,9.16V27H24v6.15h6V50.82h-2c-7.45,0-8.35,0-11.28-.16a15.31,15.31,0,0,1-5.18-1,8.69,8.69,0,0,1-3.21-2.08,8.6,8.6,0,0,1-2.08-3.21,15.17,15.17,0,0,1-1-5.18C5.09,36.28,5.06,35.4,5.06,28s0-8.35.17-11.28a15.06,15.06,0,0,1,1-5.18A8.35,8.35,0,0,1,8.28,8.28,8.6,8.6,0,0,1,11.49,6.2a15.11,15.11,0,0,1,5.18-1c2.94-.13,3.83-.17,11.28-.17s8.34,0,11.28.17a15.06,15.06,0,0,1,5.18,1,8.52,8.52,0,0,1,3.21,2.08,8.85,8.85,0,0,1,2.08,3.21,15.37,15.37,0,0,1,1,5.18c.13,2.94.16,3.83.16,11.28S50.79,36.27,50.66,39.22Z"/></g></g></svg>
