<svg xmlns="http://www.w3.org/2000/svg" viewBox="0 0 1116.03 321.21"><defs><style>.cls-1{fill:#fff;}</style></defs><g id="Layer_2" data-name="Layer 2"><g id="Layer_1-2" data-name="Layer 1"><path class="cls-1" d="M326.5,92.32h3.72c1.86,0,3.72,0,5.58,0s3.14,1.35,4.85,1.78c1.48.38,3.49.08,4.39,1.92l4.67,4.75c-.31,1.49.79,2.7.82,4.12,0,1.23-.45,2.75.11,3.64.75,1.19-.29,1.88-.11,2.8s-.39,1.94.55,2.76a1.47,1.47,0,0,1,.16,1.37c-1.38,2.54-.91,5.32-.59,7.86.39,3.08,1.07,6.18,1.73,9.25.62,2.91,1.92,5.41,2.95,8.09a4.44,4.44,0,0,0,3.29,2.8c1.21.31,2.85,1.75,4-.41.36-.68,1.32,0,2-.51,1.71-1.18,3.57-2.05,5.27-3.34,3.68-2.8,8-4.72,11.76-7.47a15.18,15.18,0,0,0,5.27-5.72,44.1,44.1,0,0,1,6.13-9.73,6.88,6.88,0,0,0,1.33-2.41c.54-1.9-1-3.24-3-2.52-.88.32-1.7.62-2.27-.23-1-1.45-2-.72-3-.24-.8.38-1.54,1.4-2.42.09-.08-.13-.45,0-.69-.09-1.16-.2-2,1.62-3.31.5s-2.59-.33-3.89-.47a35.28,35.28,0,0,0-3.71,0c-2.38,0-3.75-1-3.63-3.33.12-2,.33-4.16,2-5.86a6.12,6.12,0,0,1,4.79-2,41.5,41.5,0,0,1,11.83,2.06c.48.14,1,.37,1.36.2,1.21-.63,2.34-1.26,3.5,0a27.61,27.61,0,0,0,3.24-1.14c1.11-.55.73-1.7.74-2.64,0-3-.07-6,0-8.92a13.8,13.8,0,0,1,1.47-5.69c1.21-2.4,2.75-2.86,5.08-1.69.3.15.81.12.84.49.14,1.77,1.32,3.29,1.44,5,.21,3.24,1.29,6.4.85,9.71a6.14,6.14,0,0,0,.64,3.44c.94,2.08.77,2.32,2.55,2.19,2.51-.19,5.13.81,7.52-.66,2.25,1.86,5.2-.31,7.62,1.35.84.58,2.42,0,3.65.12s2.47-.62,3.5.53a.73.73,0,0,0,.65.17c4.16-1.63,8.48-.48,12.72-.65,1.8-.07,3-1.31,4.58-1.6.57-.1.43-.78.43-1.25a39,39,0,0,0-.05-5.19c-.3-2.24.58-4.32,1-6.34a5,5,0,0,1,5-4.35c2.88-.06,5.25,1.48,5.23,4.29,0,2.14.16,4.26-.63,6.41-.52,1.42-.11,3.19-.09,4.8,0,3,.14,3.27,3.06,3.11,3.52-.2,7.1.81,10.55-.55,2.3,1.62,5.11-.26,7.59,1.16a4.4,4.4,0,0,0,4.19-.28,2.48,2.48,0,0,1,2.73,0,3.31,3.31,0,0,0,3,.19c1.29-.34,3.12,1.25,2.67,2.42a2.7,2.7,0,0,0-.05,2.32c.4.93-.48,1.72-1.6,1.45s-1.9,1-3.18.12c-.69-.49-2-.32-3-.78-1.29-.57-1.91.79-2.65,1.53-1,1-1,.39-1.09-.5,0-.13-.53-.36-.55-.33-1.08,1.25-3,.11-3.94,1.25-.75.86-1.63.85-2.56,1.09-.52.14-.84.73-1.34,0a2.63,2.63,0,0,0-3.32-.78c-2,.92-4,.54-6.05.65s-1.86.43-1.65,2.56c.24,2.48,1.55,4.3,2.6,6.38a26.71,26.71,0,0,0,5.1,7.17,1.43,1.43,0,0,1,.61,1.24c-.11,1.19.74,1.49,1.62,2a6.83,6.83,0,0,1,3,3.41c.36.94,1,2.21,2.52,1.75a1,1,0,0,1,1,.32c2.15,2,2.38,1.87,5.14,2.7a15.8,15.8,0,0,0,6.2.31c3.16-.28,5.85-1.54,8.62-2.65,2.24-.89,4.72-1.61,6.29-3.59.79-1,1.89-.46,2.57-1,3.76-3.14,8.24-5.36,11.49-9.14a1.9,1.9,0,0,0,.45-2.28c-1.2-2.18-1.44-4.63-2-7s-1.84-4.59-1.65-7.14c0-.25-.51-.69-.45-.76,1.11-1.3,0-3,.64-4.19,1.36-2.42,1.43-5.3,3.43-7.56,1.27-1.45,2.89-2.11,4.25-3.24a15.44,15.44,0,0,1,6.37-3.46c.21,0,.39-.35.59-.35,5.84,0,11.72-.32,17,2.94,4.21,2.61,8.68,7.81,8.51,14a31.33,31.33,0,0,1-3.37,12.74,11.84,11.84,0,0,1-5.44,5.5c-1.44.75-2.75,2.43-4.13,2.44-1.93,0-2.55,2.15-4.55,1.9-1.09-.14-1.39,1.49-.46,2.41,1.45,1.45,2.69,3.2,4.69,3.92s3,2.73,5.3,2.46c2.55,1.7,5.58,2.12,8.35,3.19a6,6,0,0,0,2.75.48c1.06-.08,1.72.68,2.65.89,2,.45,4.11.28,6,.74,3.75.92,7.5.44,11.24.66,1.17.07,2.23.49,3.5.06s2.63.21,3.78-.79c.22-.18.72,0,1.1,0,3.83.07,7.52-1,11.29-1.44,1.35-.15,1.68-1.31,2.58-1.87-.82-.58-.73-1.43-.72-2.28,0-2.06.44-2.46,2.54-2.59a7.45,7.45,0,0,0,3.1-.61c1.94-.93,6.42,1.55,6.92,3.71a16.36,16.36,0,0,0,1,2.57c1.21,3,.66,4.74-2.23,5.48-1.7.43-2.49,2.07-4,2.87-2.63,1.39-2.85,1.74-6.18,1.62-.35,0-.78-.19-1,.21-.83,1.49-2.25,1.29-3.58,1.23-1.57-.05-2.87,1-4.54.83a9.89,9.89,0,0,0-4.57.53c-1.76.63-3.92.25-5.9.11s-3.83.56-5.71-.58c-.73-.44-1.92-.08-2.91-.14-2.07-.1-4.4.68-6.18-.3-1.94-1.08-4.16.62-5.89-1.13-.58-.59-1.1.85-1.88.69s-1.06-.87-1.93-.76c-2,.26-3.89-1.08-6-.79a3.91,3.91,0,0,1-2.89-.93c-2-2.06-4.64-2.07-7.09-2.69a15.13,15.13,0,0,1-5.86-2.85c-2.59-2.14-5.43-4.16-6.9-7.43-.31-.69-.9-1.18-2.06-.53a7.22,7.22,0,0,1-4.36,1.15c-1.63-.19-3,.91-4.09,1.68a19.69,19.69,0,0,0-4,3.06c-1.91,2.27-4.62,3.57-6.56,5.76-1.16,1.3-3,1.41-4.4,1.92-1.1.39-2.3,1.42-3.72.94a1.07,1.07,0,0,0-1.25.55c-.63,1-1.6.95-2.6.94-.58,0-1.28-.26-1.69.38-1.57,2.46-4.61-.15-6.31,1.83-1.2-.28-2-2.34-3.59-.87-.92-1.25-2.4-.55-3.59-.94-2.56-.83-5.12-1.5-7.17-3.37-.14-.14-.48-.05-.67-.16-1.09-.69-2.12-1.51-3.53-1.34a4.69,4.69,0,0,0-2.15-2.76c-2.89-1.54-3.58-4.8-5.72-6.89-2.4-2.33-3-5.89-5.52-8.12-.8-.7-.48-1.65-.38-2.42.17-1.24-.82-1.16-1.38-1.64s-.75-.34-1.09.1c-.15.2-.47.33-.5.53-.54,3.53-3.87,5.26-5.28,8.22a7.53,7.53,0,0,0-3.35,2.65,15.78,15.78,0,0,0-2,2.48c-.78,1.3-1.87,2.82-4,2.83a3.15,3.15,0,0,0-2.18,1.88c-.68,1.45-2.66,1.77-4.14,2.34-2.16.83-4.47,1.14-6.27,2.9-.73.72-2.28.54-3.19,1.16-1.48,1-3.21.08-4.81,1.06-1.11.68-3,.38-4.45-.59-.27-.17-.87.05-1-.15-2.4-2.81-6.59-4.09-7.15-8.5a3.94,3.94,0,0,0-1.54-2.29,8,8,0,0,1-2.68-4.85,26.08,26.08,0,0,0-1.27-2.83c-.28-.75-.46-1.91-1.29-2s-1.31.79-1.31,1.72c-1.42.12-1.3,2-2.33,2.25-1.57.36-1.48,2-2.55,2.69a19.55,19.55,0,0,0-2.65,2.58c-.18.18-.32.44-.54.51a9.78,9.78,0,0,0-5.34,5.09c-.5.94-2.05,1.34-3.15,1.92-3.2,1.65-5.75,4.37-9.24,5.52-4.87,1.6-9.52,4.13-14.91,3.51-.59-.07-1.23.17-1.69-.44-1.1-1.49-2.84-2-4.37-2.9-2.88-1.62-4.14-4.6-6-7.1-2.41-3.24-2.53-7.37-4.43-10.8a.66.66,0,0,1,0-.37c.38-3.29-1-6.41-.85-9.72.1-2,1.12-3.64.89-5.64a15.38,15.38,0,0,1,.07-5.9c.55-1.81.77-3.32-.1-5a6.08,6.08,0,0,0-5.2-3.39c-2.64-.14-5.34.48-7.88-.74-3.4,1.46-7,.48-10.48.73-2,.14-3.79,1.12-4,2.32-.17,1,1.51,3.19,3.1,3.6,3.85,1,6.75,3.31,9.37,6.14a5.31,5.31,0,0,1,1.67,3.78,7.55,7.55,0,0,0,.57,2.35c.81,2.46-1.12,4.87-.58,7.43-1.8,1.27-2.33,3.67-4.24,4.83-.19.12-.54,0-.68.13-1.53,1.43-2.81,3.36-4.6,4.21s-3.8,1.19-5.19,2.65c-.79.83-1.76.3-2.65.91-1.47,1-3.55,1.14-5.12,1.91a28.85,28.85,0,0,1-5,2.4c-.1,0-.17.17-.26.25-1,.79-1.88-.61-2.79-.15s-1.21,1.92-2.6,1.84c-.17,0-.34.47-.53.48-3.19.17-6,1.73-9,2.47a65.57,65.57,0,0,0-8.76,2.32c-1.91.76-3.87.74-5.78,1.3-2.76.81-5.73.87-8.44,2.09-1.26.56-2.66.15-4,.22-2.48.14-5.11-.55-7.26,1.36a1,1,0,0,1-.68.13c-2.68-.3-5.17,1.29-7.88.76-1.14-.23-2.3.23-3.49-.62a3.09,3.09,0,0,0-3.14.14c-.76.55-1.2.63-1.84-.06-.38-.41-.84-.28-1.26.1-1.47,1.33-3.3,1.25-5.09,1.16-2.67-.13-5.19,1.3-7.87.74a19.22,19.22,0,0,0-6.39-.72c-1.16.15-2.39-.42-3.47.68-.37.36-1.5.23-2.15,0-2.23-.8-2.18-.78-5.15,0a6.43,6.43,0,0,1-3.66,0,7.52,7.52,0,0,0-6.85.08c-1.52-1.31-3.49.45-5-.75-.53-.41-.88-.85-1.67-.06s-1.65-.52-2.47-.33a17.45,17.45,0,0,0-2.14,1.11c-.43.16-1.09-.16-1.45.06-1.25.77-1.91-1.55-3-.57-.9.84-1.87.58-2.77.49-1.51-.14-3.22.8-4.53-.7-1.44,1.52-3.26.53-4.9.71a32.44,32.44,0,0,1-4.83,0c-.93,0-1.9.34-2.78-.51a1.4,1.4,0,0,0-2,.14c-.52.56-1.55.54-1.65.35-.84-1.59-2.15.1-3.3-.58s-2.66-.06-4-.14c-3.12-.18-6.33.62-9.36-.73-1-.47-2.07,1.15-3.11,0-3.18.51-6.2-1-9.36-.76a5.13,5.13,0,0,1-2.07-.35c-1.63-.58-3.35-2-5.19-.38-1.26-.29-2.63.51-3.89-.53-.45-.37-1.4-.2-2.12-.2a69.24,69.24,0,0,0-7.06,0c-3.56.34-6.94-1.21-10.49-.78-1.64-1-3.48-.71-5.27-.74a1.15,1.15,0,0,0-.37,0c-1.46.41-1.87-2.15-3-1.38s-2.37,1-3,.47c-.91-.73-1.22.22-1.72.13-2.71-.48-5.51-.41-8.14-1a24.62,24.62,0,0,0-4.64-.38c-1.44-.07-3,.08-4.1-.85a3.46,3.46,0,0,0-2.35-.67c-3.43-.22-6.7-1.54-10.17-1.48a7.12,7.12,0,0,0-5.34-1.5C41.76,148.9,40,147.4,38,148c-.58.18-.89-1.28-1.72-.18-.44.6-1-.22-1.5-.42a7.12,7.12,0,0,0-2.18-.14c-.24,0-.55.09-.73,0-1.2-.71-2.29-1.79-3.57-2.12s-2.58-.16-3.77-.83-2.53-1.78-4.21-1.49c-.42.07-.66-.19-.94-.43-.67-.58-1.21-1.84-2.31-.53-.2.24-.44.24-.52-.1-.49-2.21-2.41-2.13-4-2.74a5,5,0,0,1-2.41-1.4c-1.56-2-4-3.25-5-5.73A2.28,2.28,0,0,0,4.08,131c-2.48-1.28-3.14-2.32-3.2-5,0-1.29.24-2.57-.68-3.81-.76-1,.89-1.84.72-3-.41-2.68.91-5.06,1.82-7.4,1-2.55,2.8-4.77,4.09-7.22,1.12-2.13,3.2-3.49,4.26-5.67,1.49-3.06,4.09-5.27,6.19-7.87a53,53,0,0,1,5.92-6.4c3.31-3,6.26-6.32,10.09-8.66.79-.49,1.57-1,2.37-1.45.3-.17.78-.17.93-.41.89-1.36,1.6-2.91,3.62-2.83,1-1.45,2.74-1.86,4.16-2.52,1.66-.78,2.52-2.55,4.33-3a13.79,13.79,0,0,0,4.56-1.56c2.79-1.87,5.94-3.08,8.76-4.92a24.25,24.25,0,0,1,8.28-3.32c.46-.1.93,0,1.32-.43,1.89-2.12,4.58-2.6,7.12-3.45,2.06-.69,3.8-2.15,6.08-2.42a2.23,2.23,0,0,0,1.54-.7,3.41,3.41,0,0,1,2.81-1.34c.3,0,.63-.61.85-.56,2.38.66,4-1.21,6-1.86a64.18,64.18,0,0,1,6.62-2c2-.46,4.29-.76,6.12-2.28,1.18-1,3-1,4.34-2A10.68,10.68,0,0,1,117,38.1c.24,0,.57.1.73,0,2.87-2.24,6.55-2.14,9.75-3.4s6.4-2.5,9.64-3.67a17,17,0,0,1,4.75-1.17c1.55-.1,3-1,4.6-1.38,2.5-.58,5.06-.91,7.55-1.53a64.67,64.67,0,0,1,8.5-1.79c2.42-.27,4.76-.76,7.15-1.13a9.48,9.48,0,0,0,2-.61c.74-.3,2.14-.85,2.42-.57,1.16,1.19,1.71-.3,2.54-.36a33.29,33.29,0,0,0,9.89-2.15,1.57,1.57,0,0,1,.72-.05c3.67.57,7.21-1.07,10.84-.71,1.64.17,2.94-.82,4.53-.9a6.07,6.07,0,0,1,2.79,0c1.43.47,3.29-.36,4.79-.78a12.62,12.62,0,0,1,4.21-.51c5.64.39,11.17-1.36,16.8-.74,1,.11,1.45-.68,2.27-.89,2.88-.76,5.76-.53,8.64-.66,1.65-.08,3.37.52,4.95-.67.44-.33,1.44-.08,2.11.13.41.14.69.6,1.26.57,1.54-.06,3.13.19,4.52-.75,1.38,1.25,2.83,1,4.31.2,1.79,1,3.47-.87,5.25-.2,1.4.53,2.69-.6,4.25-.11s3.44.11,5.17.11,3.23-.08,4.84,0a6.16,6.16,0,0,1,2.83.35c.56.28,1.85-.43,2.88-.38s2,0,3,0c1.41.08,2.88-.41,4.19.68a1.82,1.82,0,0,0,1.78,0c1.32-1.25,2.09-.41,3,.5s1.26,0,1.79-.42c.46.75,1.18.73,1.94.72,2.35,0,4.71-.05,7.06,0,.93,0,1.93-.39,2.77.55.37.42,1.12.22,1.71.06,2.94-.82,2.94-.82,6.52.06a.87.87,0,0,0,.35.05c2.71-.57,5.2,1,7.88.77,1.48-.13,3.4-.6,4.36.12,1.32,1,2.45-.22,3.7.49s2.73,0,4.14.77c.85.47,2.2.17,3.3.06,2.44-.24,4.66.93,7,1,.46,1.18,1.06-.58,1.59.08s1.16.36,1.81-.14c1-.75,1.51.83,2.6.64,2.9-.51,5.67,1.2,8.61.69.51-.09.88.31,1.3.44,1.79.54,3.55,1.35,5.53,1.07a3.11,3.11,0,0,1,2,.47c1.22.7,2.79.53,4.18,1a11.71,11.71,0,0,0,4.89.8c2-.24,2-.06,3.6.57s3.36,1.64,5.27,1.61c.73,0,1,.5,1.57.74,2.24,1,4.7,1.4,7,2.27a16.75,16.75,0,0,1,2.44,1.29c.5.3.74.86,1.47.95,2.57.34,4.72,1.42,5.77,4,.32.76,2.14.24,1.46,1.51-.77,1.48-.18,3.31-1.49,4.6-1.86,1.85-3,1.93-4.91.17-1.32-1.22-2.38-2.87-4.18-3.35-.94-.24-1.86-2-3.11-.35-.09.12-.76-.85-1.46-.62-.24-1.47-1.55-1.39-2.55-1.77-1.31-.5-2.67-.83-3.62-2.07s-2-.94-2.75.11c-.64.85-1.17,0-1.62.11-2,.31-3.71-1.09-5.66-.84a1.51,1.51,0,0,1-1.59-.64,2.28,2.28,0,0,0-2.25-.86c-1.55,0-3.1.15-4.54-.72s-3.05-.48-4.49-.86a24.92,24.92,0,0,0-4.18-.67c-1.88-.17-3.93.77-5.64-.71-1.78.94-3.56-.5-5.34,0-1.05-1.24-2.79-.26-4-1.23a1.53,1.53,0,0,0-2,.05c-.26.19-.37.45-.82.14s-.54-1.53-1.56-.76c-.72.54-1-.9-1.79-.43-.58-1-1.11-.57-1.57.09a2,2,0,0,1-2.65.58c-1.75-1.18-3.57-.47-5.33-.64a13.82,13.82,0,0,1-4.56-.7c-1.36-.61-3.15.63-4.53-.78-.24-.24-1-.12-1.45,0-1.25.28-2.69,1.45-3.69.59s-2.36-.17-3.39-.92c-.75-.54-1.56.41-2.48.37-3.71-.13-7.43-.05-11.15-.06-.84,0-1.76.23-2.31-.7-1,.78-1.63-1-2.87-.38-.53.27-1.59-.1-2.62.21a11.7,11.7,0,0,1-5.52,0c-1.26-.27-2.35.13-3.49.05-2.75-.19-5.48.41-8.3-.55a8.74,8.74,0,0,0-5.66.42,8.48,8.48,0,0,1-5.68-.32,11.43,11.43,0,0,0-6.17-.09,14.13,14.13,0,0,1-8-.06c-.94-.22-2.25-.47-2.88,0-1.28.92-2.56.56-3.85.64a15.53,15.53,0,0,1-3.34,0c-1.18-.19-1.87,1-3,.8-1.36-.29-2.9.48-4.12-.7-.81,1.45-2.73-.09-3.55,1.32-2.77-1-5.49.71-8.27.12-1.57-.34-2.86,1.14-4.53.75s-3,.36-4.28,1.31c-.17.12-.55.22-.66.13-1.18-1-2.21-.75-3.53-.05-1.1.59-2.6-.39-3.88.5-.67.47-1.29-.81-2.16-.44a4.65,4.65,0,0,1-2.3.79c-3.23-.24-6.32,1-9.44,1.26a79.19,79.19,0,0,0-9.37,1.83c-4,.87-8.11.83-11.89,2.65-1.52.74-3.46.14-5.25.78a27.94,27.94,0,0,1-4,1.17c-.3.05-.48.5-.93.45-2.91-.35-5.58.85-8.29,1.55s-5.28.82-7.65,2.16c-1.75-.52-3.16,1.07-4.9.76-1.13-.21-1.92.73-2.88,1.1-1.82.72-3.53,1.92-5.55,1.8-1.45-.09-1.62,1.79-3.11,1.59a10.4,10.4,0,0,0-3.22.2c-2.1.39-3.73,1.82-5.81,2.2A38.45,38.45,0,0,0,111.7,50c-1.42.46-2.52,1.8-4.22,1.47a1.15,1.15,0,0,0-1.21.65A2.35,2.35,0,0,1,104,53c-.88,0-2-.4-2.07,1.19,0,.42-.62.22-1,.28a24.18,24.18,0,0,0-7.41,2.77c-.41.21-1,1.33-2,.52-.74-.58-.94.75-1.53,1-.75.3-1.51.57-2.22.93a4,4,0,0,1-1.93.77c-1.3,0-1.81,2.12-3.47,1.45-.64,1.65-2.15-1.19-2.89.6-.48,1.13-2,1.14-2.87,2.06s-2,1.08-3,1.64c-.41.23-.71.77-1.13.86-1.24.28-3-.71-3.43,1.45a5.46,5.46,0,0,0-3.31,1.85c-.51.59-.71.14-1.09-.12s-.88-.18-.95,0c-1.16,2.06-3.56,2.36-5.3,3.52-2,1.33-3.81,2.78-5.67,4.26-.87.69-2.43.53-3.67.93a13.78,13.78,0,0,0-1.84.95c-1.44.69-1.24,3.37-3.57,2.89A6.13,6.13,0,0,1,39.33,85c-.43,0-.86.77-1.23,1.23-.13.16-.06.65-.13.65-2.94.37-3.5,3.64-5.81,4.7-.54.25-.56.58-.81.93-.71,1-1.48,2.37-2.47,2.61-2.42.57-3.4,2.45-3.95,4.26-.35,1.18-1.79.84-1.83,2.21,0,.87-1.33,1.5-1.77,2.57-.37.89-1.6,1.33-2.44,2-1.39,1-1.83,2.89-2.37,4.54-.33,1-.5,2.21-1.4,2.73-2.78,1.6-2.21,4.58-3,7s.36,4.46,1.87,6.23a17.37,17.37,0,0,0,4,3.88,41,41,0,0,0,6.65,2.76c.52.2,1.1,0,1.69.44,2.68,1.84,6,2.35,8.86,3.71,2.77-.73,5.08,1.74,7.87,1.09a5.29,5.29,0,0,1,4.43.9,3.79,3.79,0,0,0,2.76.54,17.28,17.28,0,0,1,6.6,1.15,19,19,0,0,0,5.49,1.17,28,28,0,0,1,7.59,1.36c1.4.5,3.16-.41,4.51.8,2.7-.53,5.22,1.12,7.86.7,1.68-.27,2.95.84,4.54.85s3.11-.64,4.58.61c.51.43,1.69,0,2.55.08,3.26.3,6.6-.67,9.81.55,2.05-1.58,4,.92,6,.23a1.87,1.87,0,0,1,2,.37,2.26,2.26,0,0,0,2.44.26c1.36-.47,2.61,0,3.86-.06,3.56-.14,7,.7,10.47,1s7,.55,10.49.55c1.46,0,2.92,1.64,4.08.67s2.53,1.24,3.22-.6c1.2,1.38,2.79.51,4.18.66a37.18,37.18,0,0,0,4.09,0h4.46c1.37,0,2.74-.08,4.09,0,1,.08,2.15-.43,3.13.56.72.73,1.45-.82,1.79-.53,1.4,1.2,2.61-.21,3.89-.05.82.1,1.69-.28,2.42.5a1.39,1.39,0,0,0,1.34.2c1.83-1.29,3.58-.69,5.37,0a1.66,1.66,0,0,0,1.1,0c4.17-1.51,8.49-.37,12.72-.72,1.45-.13,2.59,1.09,4.16.77,6.79-1.39,13.69-.33,20.5-.9,2.37-.2,4.75-.61,7.14-.59.93,0,2-.43,2.76.54.34.41.82.15,1.26-.18a7,7,0,0,1,4.73-1.15c1.73.1,3.47,0,5.21,0a11.19,11.19,0,0,0,4.55-.68c1.37-.59,3.13.6,4.55-.76.32-.31,1.19-.07,1.81,0a31.53,31.53,0,0,0,5.66-.62,16.33,16.33,0,0,0,5.43-1.32c.79-.41,1,.8,1.34.23.79-1.18,1.06.47,1.73.25s1-1.07,1.68-1.34a4.06,4.06,0,0,1,1.78-.16,10.56,10.56,0,0,0,6.07-1.51c2.49-1.45,5.35-1.73,8-2.06,2-.25,3.91-1.32,6-.9.82.17,1.47-.51,1.86-.82a11.73,11.73,0,0,1,7.75-2.88,1.35,1.35,0,0,0,1.23-.64c1.1-1.65,3-1.72,4.61-2.34,2.54-1,5.06-1.9,6.34-4.63a7.23,7.23,0,0,1,1.41-1.64c1.58-1.66,1.62-2.1-.09-3.89a15.6,15.6,0,0,0-5.66-4.27,15.05,15.05,0,0,1-5.47-3.86,4.94,4.94,0,0,0-3-1.89,2.72,2.72,0,0,1-2.17-2.94c.05-1.4.5-2.94-.71-4.15,1.13-1.39.19-3.57,1.93-4.8A13,13,0,0,0,300,98.5c1.28-1.63,3.14-2,4.94-2.47,1.54-.44,3.31-.36,4.49-1.72.69-.81,1.67-.21,2.38-.54,3.63-1.65,7.47-1.49,11.3-1.45C324.27,92.33,325.38,92.32,326.5,92.32ZM417,112.37c-2,0-4,0-5.93,0a4.5,4.5,0,0,0-3.74,1.68c-.74.91-.14,1.79.51,2.55-.88,1.15.54,2.63-.08,3.39-1.55,1.91-.28,3.66.47,4.82,1.21,1.85,1.86,4,3.22,5.76,1.53,2,2.11,4.67,4.23,6.4,1.7,1.38,3.61,1.92,5.56,1a6.91,6.91,0,0,0,2.1-1.26,17.69,17.69,0,0,1,2.85-2,1,1,0,0,1,.73,0c1.21.41,2.05-.53,3-.93a27.21,27.21,0,0,0,5.79-4c1.77-1.44,3.41-3,5.14-4.44,2-1.7,2.7-4.14,4.2-6.1a5.39,5.39,0,0,0,.79-3.75c0-.41-.15-.7-.53-.81-1.65-.51-3.28-1.08-5-1.45a2.13,2.13,0,0,0-2.06.36c-.88.78-1.78.49-2.51-.4-.61-.73-1.18-1.15-2.1-.23-.32.33-1.15.26-1.73.21-2.87-.24-5.72.35-8.64-.61C421.35,111.87,419.08,112.37,417,112.37ZM537.84,99l-6,1.36a5.39,5.39,0,0,0-3.79,3.9c-.37,1.89-2.15,3.63-.6,6a10.59,10.59,0,0,1,1,3.67,6.41,6.41,0,0,0,2.46,4.54c.79.53,1.12.8,2.12.18a82,82,0,0,1,7.63-3.94c2.48-1.18,4.81-2.4,5-5.67a2.77,2.77,0,0,1,.74-1.49,1.65,1.65,0,0,0,.52-2,14.87,14.87,0,0,1-1.72-4.12c0-.09-.44-.11-.67-.11a1.52,1.52,0,0,1-1.32-.41C541.67,99.15,539.42,99.74,537.84,99Z"/><path class="cls-1" d="M898.79,112.84c.74,2.47-.79,5.36-.73,8.37a2.93,2.93,0,0,1-.84,1.83c-1.44,1.32-1.61,3.1-2.15,4.74-.32,1-.32,2.31-1,2.9-1.46,1.3-1.13,3.34-2.32,4.65a26,26,0,0,1-3.16,3.13c-2.26,1.76-3.33,4.3-4.38,6.75a9.26,9.26,0,0,0-.14,6.49c.77,2.05-.24,4.36,1.31,6.13a48.76,48.76,0,0,0,3.33,11.62,4.74,4.74,0,0,1,.37,2.07c-.16,2.18.43,4.26.69,6.38a17.87,17.87,0,0,0,1.5,6.09c-.61,3.55,2,6.58,1.58,10.13-.18,1.41,1,2.61.77,4.16-.18,1.24-.44,2.66.66,3.79.19.19.08.73,0,1.09-.56,3.55,1.12,6.93.75,10.46a1.45,1.45,0,0,0,.41,1.32c.72.71-.1,2,.39,2.39,1,.89.07,1.43-.08,2-.36,1.41.91,2.41.81,3.78-.08,1.18-.56,2.61.35,3.53s-1.08,2.17.35,3c-.38,3.41,1.19,6.66.8,10.1-.14,1.23-.59,2.69.66,3.8a1.12,1.12,0,0,1,0,1.07c-1.16,1.79-1.12,3.34.66,4.73.14.11.08.73-.1,1a4,4,0,0,0-.39,4.16,6.08,6.08,0,0,1,.53,3.84c-.29,2.48.95,4.7.83,7.13s.09,5-.07,7.43c-.08,1.08,1,1.62.82,2.67a8.65,8.65,0,0,0,0,2.59c.06.4.51.79.85,1.11.63.58.91,1.11.16,1.81s-.37,1.44-.26,2.09c.16.93,1.44,1.78,0,2.71,1.08.68.68,1.77.66,2.69,0,1.16.87,1.88,1.21,2.86s1.08,1.71.41,3a2.69,2.69,0,0,0,.41,3.09,1.4,1.4,0,0,1,.19,1.35c-1.39,2.16-.42,4.53-.7,6.77-.24,1.88.53,3.87-.7,5.67-.26.37.07,1.08.31,1.68a9.15,9.15,0,0,1-.3,6.24c-.56,1.38-.87,2.72-2.62,1.15a1.85,1.85,0,0,1-2.26.66,10.94,10.94,0,0,0-4.18-.73,1.62,1.62,0,0,1-1.41-1.44c-.59-3.31-2.75-6.28-2.23-9.84.16-1.12-1-1.81-.81-3.05a3.29,3.29,0,0,0-.56-3.11,1.93,1.93,0,0,1,.14-2.36c1-.7-.65-1.15,0-1.64s.33-1.1.46-1.67c.26-1.16-1-1.81-.85-3,.09-1,1-1.55.88-2.66-.24-1.88.21-3.83-.78-5.63a8.71,8.71,0,0,1-.77-4.52c.11-4.49-1.26-8.91-.73-13.43-.91-2.1-.08-4.58-1.44-6.59a1.32,1.32,0,0,1,0-.72c.35-4.14-1.27-8.17-.75-12.32.1-.81-.3-1.7.52-2.39.43-.37.23-.8-.08-1.27a4.26,4.26,0,0,1-.23-4.16,6.06,6.06,0,0,0,.41-4.59c-.6-2-.8-4.1-1.26-6.13s-.15-4.43-.09-6.66c0-1.45-1.28-2.62-.77-4.14-1.31-1.06-.82-2.55-.68-3.78.43-3.91-1.23-7.46-1.69-11.21-1.12-.86-.47-2.06-.57-3.1s0-2.15-.77-3a1.67,1.67,0,0,1,0-2.35c-1-.84-.72-2-.74-3s-.31-2.12.06-2.94c.74-1.63.12-3.29-.24-4.57-.46-1.65-1-3.28-1.47-5s-.12-3.41-.67-4.9a15.42,15.42,0,0,1-.62-6,6.61,6.61,0,0,0-.74-2.3c-.27-.86-1.68-1.81,0-2.72-.58-1.25-.83-2.61-1.41-3.87-.47-1-1.61-2.12-.23-3.54.61-.64-.91-2.44-1.84-2.65-3.21-.72-5.4,1.39-7.78,2.79l-8.07,4.74c-1.38.82-3.1.06-4.26,1.49-.89,1.11-2.4,1.28-3.75,1.66-.4.11-.74.55-1.28.49-3.75-.42-6.47,2.41-9.86,3.14-.79,1.47-2.2,1.5-3.54,1.28-2.23-.38-4.18,1.15-6.39.79a.85.85,0,0,0-.61.3c-.64.65-1.09,1.37-2.24.49-.54-.41-1.24.94-2.25.7-2.36-.56-4.37.66-6.4,1.56-.52.23-1,.93-1.58.62-2.06-1.09-4.07.11-6.09.15a15,15,0,0,0-5.93,1.71c-1.47.69-3-.15-4.24.52s-2.37.89-3.6,0c-.44-.32-.82,0-1.27.26-1.52.84-3.08,2-4.81.36-1.65.28-3.42-.6-5,.53a1,1,0,0,1-.65.2c-3.3-.35-6.42,1.2-9.74.8-1-.12-2.19-.48-3.12.55a1.58,1.58,0,0,1-1.39.12,11.47,11.47,0,0,0-8.71,0,2.59,2.59,0,0,1-1.39-.16,24,24,0,0,0-11.17-.16,20.46,20.46,0,0,1-7.22.19c-3.74-.58-6.92-.82-10.26.05-.82.22-2,.49-2.42-.09-1.21-1.84-3.28-1.45-4.84-1.87a14.67,14.67,0,0,0-7,0c-1.36.32-2.36-.26-3.53-.26-2.62,0-5.36.79-7.87-.66-1.16,1-2.35,0-3.47.1-2.24.18-4.23-.83-6.39-.87-2,0-3.83-1.1-5.72-1.35a50.85,50.85,0,0,1-10.22-2.34,55.18,55.18,0,0,1-6.12-2.26c-2.79-1.38-5.48-3-8.14-4.59a4,4,0,0,1-1.68-3,21.46,21.46,0,0,1,.92-9.25c.36-1.05.86-2.46,2.06-2.82,2.12-.62,3.45-2.69,6-2.74,1.46,0,2.88-1.21,4.56-1.52a11.87,11.87,0,0,1,3.44-.53c1.18.14,1.86-1,3-.81,3.17.58,6.21-.74,9.35-.74,1.39,0,1.61-.75,1.1-2.23-.91-2.61-2.77-5-2.25-8-1.18-2-.83-4.26-.67-6.37.1-1.34-1.21-2.2-.79-3.4.33-1-1.19-1.67-.09-2.8.75-.78-.6-1.69-.67-2.61-.08-1.11.24-2.3-.07-3.32-.88-3-.7-6-.66-9,0-1.16-.44-2.39.61-3.47.68-.71-.74-1.14-.63-1.86.39-2.61-.82-5.34.69-7.89.32-.55,0-1.46,0-2.2,0-2.85,0-5.7,0-8.54,0-.7-.28-1.44.26-2.12.67-.85.49-1.57-.06-2.57-.74-1.34-1.9-2.88-.31-4.54.25-.26,0-1,.11-1.42.3-1.17-.8-2.17-.11-3.52.58-1.11-1-2.29-.71-3.74s.53-3.11-.14-3.95c-1-1.2-.25-2.5-1.07-3.72-1-1.48.25-5.75,1.53-7.7.13-.2.47-.37.46-.54-.1-1.21.19-2.39,1.48-2.49,1.62-.12,3.27-.42,4.72,1.18a16.69,16.69,0,0,1,4.23,9.79,2.9,2.9,0,0,0,.41,1.7,2.33,2.33,0,0,1,.08,2.7,2.17,2.17,0,0,0,0,2.59,3.66,3.66,0,0,1,0,3.46,3.59,3.59,0,0,0,0,3.74c.37.6.18,1.17.36,1.72.48,1.47-1.49,2.65-.55,4.06s.38,3.08.51,4.61,0,3,0,4.46-.07,3,0,4.45c.06,1-.75,1.91-.13,3.15s-1,2.28-.7,3.74a10.22,10.22,0,0,1,0,3.7c-.32,2.1.93,3.91.91,6,0,1.29-1,2.39-.28,3.9.57,1.22.33,2.95.09,4.39-.3,1.89,1.12,3.39.85,5.28a11.51,11.51,0,0,0,0,5.16c1.09,3.25.45,6.51.63,9.75s.26,3.29-.77,5c-.62,1-1.08,1.82-.19,2.85a2.35,2.35,0,0,0,3,.37c.78-.34,2-1.14,2.27-.89.8.78,2-.16,2.67.94.14.24,1,.31,1.36.16.95-.39,1.7-1.27,2.92-.35.65.5,1.88-1.21,2.57.38,0,0,.23,0,.35,0,1.46.16,2.79-.47,4.17-.66s2.55,1.49,4,.28c.37-.31.49-.08.81,0,1.62.52,3.23.85,4.79-.32.32-.24,1,0,1.45-.07a1.68,1.68,0,0,1,1.85,1.38c.2.82-.62,1.45-1.24,1.55-2.54.4-4.82,2.07-7.56,1.55a2.84,2.84,0,0,0-1.83,0c-1.71,1.16-3.87.75-5.61,1.73a12.23,12.23,0,0,1-6.2,1.24c-1.52,0-3.07-.5-4.61.54-1.25.85-3.07-.49-4.52.78-.5.43-1.67,0-2.53.13a38.68,38.68,0,0,0-10.65,3c-1.58.63-1.93,3.3-.73,4.62s2.5,2.42,3.65,3.71c.59.67,1.68.41,2.08,1.29,1.87-.51,3.47.83,5.27.74a21,21,0,0,1,8,1.37,1.06,1.06,0,0,0,1.28-.28,2,2,0,0,1,2.39-.27c1.48,1.19,3.07.49,4.59.65s2.8-.06,4.19.7c1.1.59,2.66-.52,3.85.58a1,1,0,0,0,1,.14c1.65-1.35,3.56-.56,5.32-.6s3.6-.58,5.3.63c.5.35,1.45.05,2.2.05,3.72,0,7.44.07,11.15,0,1.29,0,2.36,1.22,3.93.15.93-.63,2.65-.12,4-.12h4.47a18.4,18.4,0,0,0,4.07-.06,10.29,10.29,0,0,1,4.62,0c1.65.37,3.28-.21,4.89-.67s3.28.41,5-.56a5,5,0,0,1,3.94-.1,4.06,4.06,0,0,0,3.12-.2,3.89,3.89,0,0,1,2.41,0c.62.15,1.33-.81,2.28-.66,2.67.39,5.17-1.28,7.87-.73,2.43-1.57,5.82.26,8-2.23a20,20,0,0,0,5.65-.69c2.1-.37,4.17-1,6.39-.85,1,.08,2-.59,3-.77,2.4-.41,4.72-1.36,7.2-1.39a2.15,2.15,0,0,0,1.29-.5c3-2,7-1.73,9.88-4,2.4.06,4.55-1,6.83-1.48a19.61,19.61,0,0,0,6.38-2.6c2.31-1.38,4.66-2.9,7.5-3.43a9.89,9.89,0,0,0,4.57-2.28c1-.89,2.23-.36,3.23-1.41,1.59-1.68,2.8-3.64,4.29-5.38.82-1,.62-2.79,0-4.14-.78-1.65-.34-3.33-.25-5,0-.18.58-1.59,1.52-.49a.78.78,0,0,0,.65.19c1.94-.42,3.2.57,4.44,1.9,1.5,1.62,2.35,1.45,3.85-.19a9.27,9.27,0,0,0,1.19-2.14A22.67,22.67,0,0,1,885,125c1.44-1.81,1.93-4.18,3.24-6.06.64-.93-1.22-1.63,0-2.36-.29-1.6.69-2.94.9-4.47.57-4.36-1.4-8-3.07-11.75a7.74,7.74,0,0,0-1.93-2.17,9.44,9.44,0,0,1-2.95-4.36c-.25-.87-.47-2.21-1.93-2.24a.52.52,0,0,1-.32-.11c-1.69-1.48-3-3.24-5.39-4.06-2-.69-3.64-2.39-5.65-3.38-1.41-.7-2.41-2.2-4-2.87-2.22-.94-4.29-2.25-6.75-2.56-2.9-.36-5.47-2.19-8.52-1.87-.25,0-.66.09-.72,0-1.39-2.41-3.3-1-5-.74-2.22.32-4.2-.63-6-1.55-1.31-.66-2.35-1.11-3.61-.18-.1.07-.17.18-.27.25-1.22.85-2.08-1.59-3.63-.26a3,3,0,0,1-3.69-.35.74.74,0,0,0-.67-.11c-2.57,1.38-5.32-1-8.09.59-1.5.87-3.58-1-5.54-.67-.83-1.32-1.55-.19-2.4,0s-1.24,1.29-1.87.76c-1-.82-2.52-1.1-3-.59-.8.91-1.65-.39-2.25.47-.3.41-.86.21-1.24-.2a2,2,0,0,0-2.4-.29c-1.36,1-2.8.59-4.21.64a24.5,24.5,0,0,0-4.17.68c-3.58.74-7.16,1.78-10.9,1.58a1.88,1.88,0,0,0-1.07.09c-2.47,1.77-5.71,1.68-8.23,3.53a8.41,8.41,0,0,1-4.9,1.47c-2.85-.09-5.23,1.25-7.84,1.85-1.89.43-3.69,1.42-5.53,1.83s-3.82,1.23-5.7,1.47c-2.42.32-5.08.79-7.48-.59-1.08-.61-2.39-1.08-.86-2.55-.26-3,2.07-4.74,3.76-6.57s3.16-4,4.89-5.84,3.93-3,4.8-5.42c2.84-1.14,3.58-4.26,5.81-6.1a13.57,13.57,0,0,0,4.6-8c0-.24-.1-.59,0-.73,2.43-2.78,2.37-6.13,2.21-9.49-.06-1.22.75-2.15.84-3.4.29-4.06-1.5-7.56-2.72-11.18-.46-1.35-1.18-2.78-1.61-4.14-.51-1.61-2.21-2.1-2.62-3.78a2.71,2.71,0,0,0-2.84-1.91c-.89.09-1.34-1-1.93-1.55a14.52,14.52,0,0,0-8.25-4.34,2.63,2.63,0,0,1-.69-.12c-3.13-1.41-3.13-1.4-6.57-.64a2.76,2.76,0,0,1-1.11,0c-2.7-.55-5.2,1.07-7.87.76-.24,0-.62-.08-.71,0-1.55,2.12-4.38,1.38-6.29,2.87-1.61,1.26-4.12.71-5.72,2.28-3.24.09-5.56,2.1-8.17,3.66-4.09,2.45-8,5.17-11.92,7.88a40.09,40.09,0,0,0-9.83,10.31c-2.81,4.1-5.16,8.48-7.58,12.82-1.91,3.45-4.22,6.68-6.38,10-1.38,2.13-2.19,4.56-3.63,6.68-.91,1.36-.39,3.12-.31,4.66.13,2.17-.31,3.26-1.87,3.42a3.13,3.13,0,0,1-3.4-2.91c-.11-1.16.52-2.45-.68-3.47a1.44,1.44,0,0,1,.22-1.69c.52-.46.75-1,.16-1.53-.83-.82-.16-1.9-.45-2.78-.4-1.22,1-2,.74-3a7.26,7.26,0,0,1-.11-2.37,7.89,7.89,0,0,1,1.69-4.52c2.38-3,3.57-6.63,6.49-9.28,2.3-2.09,3.51-5.21,5.39-7.73,1.76-2.34,4-4.32,5.16-7.1,2.77-1,3.44-3.54,4.51-5.87.78-1.7,2.94-2,4.09-3.42,2.74-.26,4.36-2.26,6.16-4,1-1,1.87-2.23,3.6-2.16a2.23,2.23,0,0,0,1.18-.6c2.33-2.69,6.07-2.91,8.74-5.08,1.45-1.17,3.5-1.67,5.35-2.25.82-.26.89-1.71,2.17-1.13.74.34,1.59-.29,2-.74.77-.83,1.91,0,2.68-.93.37-.46,1.85.06,2.35-.39.92-.82,1.85-.45,2.77-.58,1.74-.25,3.08-1.49,4.86-1.78a13.71,13.71,0,0,1,4-.45,9.53,9.53,0,0,0,1.85,0c3.1-.38,3.06-.25,6.54.67a38.09,38.09,0,0,0,5,1.33c3.63.43,6.44,2.44,9.41,4.24,1.83,1.1,3.13,2.89,5.16,3.7.21.08.49.33.51.52.25,2.91,3.28,4,4.29,6.4.22.55.4,1.06.57,1.63.26.86.58,2,1.25,2.4,3,1.79,2.24,5.34,3.88,7.73a.8.8,0,0,1-.21,1c-.8.67-.46,1.4-.25,2.27a39.29,39.29,0,0,1,1.3,6.92c.09,1.42-.91,2.41-.86,3.79s.38,2.55-.55,3.86c-.53.74-.09,2.15-.15,3.25,0,.72.26,1.47-.21,2.14-1.13,1.63-1.64,3.59-2.53,5.25a27.65,27.65,0,0,1-2.88,4.82,14.05,14.05,0,0,0-2.25,2.66c-.59,1.15-1.84,2-2.82,2.93-.5.49-.71,1-.14,1.53s1.1,1.23,1.47.75c1.06-1.38,2.74-.29,4-1.32.83-.66,2.63-.14,4-.11.64,0,1.12-.42,1.63-.55a18.61,18.61,0,0,1,5.2-1A15.8,15.8,0,0,0,784,66a6.1,6.1,0,0,1,2.05-.42c5.74,0,11.4-1.08,17.17-.81s11.66,0,17.48.06c1.11,0,2.52-.39,3.26.14,1.19.84,1.82-.52,2.84-.21s2.23,0,3.33.09a65.54,65.54,0,0,0,12,.72c1.6,1.66,4.1-.19,5.74,1.46a.82.82,0,0,0,1-.24,1.51,1.51,0,0,1,2.25-.15c.3.21.53.48.95.42,2.66-.4,4.7,1,6.93,2.12,2.53,1.3,5.4,1.89,8.06,3A11.21,11.21,0,0,1,870.41,74c.59.52,1.46,1.3,2.05,1.18,2.15-.42,3,1.3,4.35,2.2,2.18,1.42,4.23,3,6.31,4.53a34.68,34.68,0,0,1,6.51,5.86,39.62,39.62,0,0,1,5.07,8.36c1.08,2.27,1.47,4.88,2.67,7.06C899,106.09,898.76,109.15,898.79,112.84Z"/><path class="cls-1" d="M956.78,182.94c-2.63,0-4.49,0-6.34,0a23.19,23.19,0,0,1-3.79-.45,9.46,9.46,0,0,1-3.26-.75c-1-.63-2.24.32-3-.74-.47-.6-1,1-1.61-.08a1.56,1.56,0,0,0-1.82-.93c-.92.24-1.54-.56-2.3-.69s-1.11-.78-1.89-.91a14.28,14.28,0,0,1-1.84-.88c-3.84-1.47-6.8-4.15-9.86-6.77a14.08,14.08,0,0,1-3.53-4.46c-.26-.52-.33-1.13-.84-1.51a8.39,8.39,0,0,1-3.35-5.65c-.34-2.34-2.54-3.35-3.24-5.36-.11-.32-.76-.58-.73-.79.49-3-2.15-5.26-1.68-8.27a7.36,7.36,0,0,0-.5-3.83,5.15,5.15,0,0,1,.38-4.91.83.83,0,0,0,.17-.65c-.53-1-1.3-1.93-.13-3.19.66-.71.15-1.95.71-3s.61-3,.82-4.44a21.12,21.12,0,0,1,3-8.82c2.31-3.6,3.92-7.58,6.48-11.09,1.45-2,3.28-3.68,4.54-5.82.53-.9,1.28-1.69,1.81-2.59s2-.82,2.59-1.83c.81-1.45,2.21-2.31,3.41-3.34s2.66-1.53,3.74-2.56c2.31-2.21,5.4-2.57,8.18-3.62,2-.77,4.2-1.54,6.47-.13.71.45,2-.15,2.91.11a81.64,81.64,0,0,1,9.49,3.12,19.44,19.44,0,0,1,3.22,2.07c2.55,1.77,5.39,3.25,6.11,6.81a5.68,5.68,0,0,0,2.19,3.11c1.46,1,1.52,2.68,2.07,4,.43,1,.46,2.15,1.2,3.24a4.29,4.29,0,0,1-.06,4.45c-.21.39-.34.84-.53,1.26-.51,1.1-.1,2.25,1,2.32,1.48.1,3.1.39,4.43-.07s2.59-.85,3.87.1c3.5-.59,6.24,1.73,9.38,2.53,2,.52,3.84,2.1,5.67,3.31s2.88,3.25,4.14,5a10.73,10.73,0,0,1,1.52,4.54c.43,2.84-.62,5.82.79,8.59-1.24,2,0,4.45-1,6.23-.78,1.41-.32,2.77-.76,4.14a17.31,17.31,0,0,1-2.91,5.46,13.48,13.48,0,0,0-1.86,4.09c-.28.72-.62,1.49-.9,2.23-.54,1.41-2.19,2-2.84,3.29s-1.19,2.24-2.61,2.63a1.65,1.65,0,0,0-1,1,2.11,2.11,0,0,1-2.51,2,.82.82,0,0,0-.59.33c-2.07,2.57-5,4-7.55,6-1.76,1.4-3.59,2.68-6,2.54-.64,0-1.13.44-1.62.54-1.52.29-2.19,2.33-4.16,1.75-1.37-.41-2.61,1.22-4.14.69C962.84,183.68,959.37,182.53,956.78,182.94Zm4-13.37A27.68,27.68,0,0,1,950,167c-2-.84-2.55-2.7-3.86-4-.94-.92-.48-2.1-.44-3.13a7.77,7.77,0,0,0-1.12-3.64,10.43,10.43,0,0,1-1.21-3.23c-.4-3.56,1.16-6.93.82-10.46,0-.17.28-.37.45-.54a.78.78,0,0,0,0-1.26c-.74-.66-.29-1.09,0-1.83.73-1.81,2.75-3,2.51-5.28,0-.17.26-.4.45-.54,1.47-1.12,2.07-2.89,3.23-4.24s2.85-2.39,4.1-3.79c2.07-2.31,4.85-3.67,7.43-5.33s5.25-2.29,7.91-3.36c1.43-.58,1.84-1.24,1.25-2.24-2-3.49-3.49-7.28-5.95-10.56-1-1.34-2.51-2-3.45-3.31A14.3,14.3,0,0,0,956,95.56a20.29,20.29,0,0,0-11-.69c-1.78.31-7.7,4-9,5.21-1.07,1-1.93,2.46-3.2,3-1.56.72-2.07,2.18-3,3.26-2.26,2.65-4.54,5.33-5.9,8.66-1.55,3.81-3.61,7.39-4.77,11.4-.67,2.33-1.84,4.47-1.86,7,0,2.39-1.54,4.78.07,7.18-.09,3.23,1.65,6,2.21,9.09.09.48,0,.93.45,1.31,1.59,1.45,1.83,3.83,3.66,5.19s1.75,3.92,3.7,5.12c2.15,4.44,6.48,5.84,10.61,7.41,2.68,1,5.64,1.39,8.22,2.58,3.94,1.82,8.12,2.13,12.28,2.64a4.15,4.15,0,0,0,1.79-.16,15.66,15.66,0,0,1,6.14-1.3,3.41,3.41,0,0,0,1.95-.7c1.58-.91,3.44-1.35,5-2.33,1.79-1.15,3.87-1.45,5.69-2.46,4.5-2.49,7.64-6.45,10.89-10.23,1.71-2,2.49-4.66,3.92-6.91.57-.89.16-2.22.84-3.35a16.3,16.3,0,0,0,2.22-10.18c-.47-4.32-2.45-7.94-6.78-9.63a16.53,16.53,0,0,0-4.78-1c-2-.15-4.1-.27-6,.7-3.26-.63-6,1.18-8.7,2.32a42,42,0,0,0-9,5.2c-2.49,1.88-5.15,4.1-6.21,7-.88,2.44-2,5.07-1.66,7.87a3.29,3.29,0,0,1-.1,1.8c-1.67,3,.18,5.71.6,8.52a3,3,0,0,0,1,1.83c1.43,1.25,2.67,2.65,4.56,3.38a26.36,26.36,0,0,1,4.47,2.64c.4.25.89.68.63,1.18s-.71,1.16-1.19,1.26A14.59,14.59,0,0,1,960.81,169.57Z"/><path class="cls-1" d="M1076.63,141.66c-.74,4,1.61,7.67,2.55,11.62.54,2.28,1.75,3.46,4,3.64a1,1,0,0,1,.82,1.57c-1.38,2.27-2.4,4.78-4.21,6.8-.6.67-1.09.78-1.82.1-.89-.83-2.52.39-3.26-1.06-.52-1-1.09-2-1.57-3.07a74.92,74.92,0,0,1-4-12.06c-.48-1.78-.26-3.62-.78-5.25a17.78,17.78,0,0,1-.63-5.29c0-2.74,1.65-7.77,2.84-11.06.74-2.06,2.33-3.76,2.48-6,0-.18.42-.32.49-.53.81-2.3,2.82-3.88,3.54-6.34.63-2.15,2.2-4,3.28-6,1.69-3.17,4.88-4.32,7.78-5.86a.83.83,0,0,1,.7,0c2.13,1.69,5.17,1.4,7.17,3.34.18.18.42.32.51.53,1.3,2.74,4.19,4.28,5.4,7.05.8,1.82,2.21,3.23,3.1,5,1,2,1.56,4.07,2.35,6.09a50.82,50.82,0,0,1,2.14,6.19c.7,2.76.69,5.58,1.34,8.32,1,4.42.88,9.09,2.74,13.34.1.21.28.45.24.64-.53,2.94.93,5.69.77,8.6-.11,2.15.78,4.14,1.17,6.21.17.95.56,1.95.13,2.74-1.12,2.08-1.35,4.4-2,6.59-.32,1.1-.77,1.74-1.83,1.82-.87.06-2.1.48-2-1.18-2-1.76-2.13-4.28-3-6.56-1-2.82-.89-6-2.56-8.58a3.63,3.63,0,0,1-.31-2.1c-.09-2.26.24-4.57-.74-6.74-.19-.42,0-1.09-.25-1.37-1.73-1.76-1.53-4.09-2-6.23-.84-3.73-1.68-7.46-2.76-11.12-.29-1-.27-2-.58-3.07-.68-2.22-2-4.13-2.75-6.31-1-3-1.85-6.13-3.54-8.92-1.86-3.08-4-3.2-6.31-.3a8.07,8.07,0,0,0-1.35,2.8c-.31,1-2,1.37-2,2.49s-1.17,1.88-.82,3c-1.56,1.79-2.17,4.07-2.93,6.21A24.54,24.54,0,0,0,1076.63,141.66Z"/><path class="cls-1" d="M1032.69,137.84c0,1,0,2,0,3a20.15,20.15,0,0,0,1.46,9.05c-.47,1.85.61,3.48.84,5.24.26,1.93.76,3.87,1.17,5.79.52,2.43,2,4.19,3.3,6.06.56.79.93,1.52.56,2.29s-1.15,1-2.11,1.14c-2.13.32-4.06-.51-6-.93s-3-2.35-3.6-4.15a19.09,19.09,0,0,0-1.44-3.5c-1.18-2.23-1.43-4.82-2.28-7.21a24.88,24.88,0,0,1-1.59-9.39,45.67,45.67,0,0,0,0-6.3c-.33-3.43.82-6.69.93-10.09.08-2.52,1.67-5,2.37-7.49.52-1.9,2-3.44,1.94-5.51,2.08-2,3.38-4.64,5.74-6.46s5.36-2.09,8.11-2.89a3.12,3.12,0,0,1,1.84,0c1.6.62,3,2.29,4.95.9,1.59,1.23,3.89,1.09,5.28,2.44,1,1,2.47,1.1,3.24,2.62.51,1,2.28,1.65,3,2.81a10.36,10.36,0,0,0,3.55,3.06c1.13.74,2.34,1.32,2.25,2.94,0,.51-.12,1-.74.41a1.12,1.12,0,0,0-1.32-.32c-2.63,1.85-4.12-.47-5.79-1.64a10.73,10.73,0,0,0-4-2.18,5.3,5.3,0,0,1-3-1.7c-1.67-2-4.32-2.17-6.39-3.42-1.9.78-4.3.77-5.49,2.67a8.77,8.77,0,0,1-1.44,2,5.79,5.79,0,0,0-1.86,3.34,42.11,42.11,0,0,1-2.77,7.75,14,14,0,0,0-.72,5.65C1032.68,135.12,1032.69,136.48,1032.69,137.84Z"/><path class="cls-1" d="M861.33,30.67c.45,0,.57,0,.69,0,1.27.18,2.87-.66,3.7.83,1.08,1.92,2.51,3.92,1.69,6.21-.27.76-.26,1.76-.72,2.26-1.67,1.83-1.36,4-1.37,6.11,0,1.73,0,3.45,0,5.18,0,1.54-1.05,2.86-.89,4.43-1.5.27-2.79,1.33-4.13,1.57a5.45,5.45,0,0,1-4.47-1.51c-1.21-1.15-2.23-2.48-3.86-3.18-1.28-.56-1.14-2.19-.7-2.91,1-1.68,2.09-3.14.65-5,1.31-2.83.09-6.43,2.72-8.86.66-.61,0-1.56.74-2.3C857.17,31.73,858.76,29.81,861.33,30.67Z"/><path class="cls-1" d="M344.21,59.64c-1.89,0-2,0-2.56-2.15a5.72,5.72,0,0,0-.89-1.82c-.74-1-.58-1.48,0-2.47a4.15,4.15,0,0,0,.81-3.33c-.39-1.31.5-2.31.84-3.37.66-2,1.78-3.82,1.43-6.07-.13-.83.64-1.26,1.26-1.57,1.63-.82,3.53-1,5-2.19.86-.69,1.4.61,2.21.81,1.14.3,1.64,2,3.12,2.25.43.07.37.83.22.94-1.23,1,.53,1.84,0,2.75,1.14.78.34,1.82-.06,2.3-2.1,2.54-3.17,5.59-4.54,8.49a12.69,12.69,0,0,1-3.71,4.34A3.66,3.66,0,0,1,344.21,59.64Z"/><path class="cls-1" d="M872.81,123.65c-.47.74-1,1.62-1.57,2.47a.61.61,0,0,1-.5.2c-1.39-.53-2.94-4.2-2.34-5.52a1.83,1.83,0,0,1,3-.44A19.93,19.93,0,0,1,872.81,123.65Z"/></g></g></svg>
